<?xml version="1.0" encoding="UTF-8"?>
<svg id="Layer_1" data-name="Layer 1" xmlns="http://www.w3.org/2000/svg" viewBox="0 0 95.68 56.69">
  <path d="M35.22,56.69h11.74s3.8-14.17,3.8-14.17h-11.74s-3.8,14.17-3.8,14.17Z"/>
  <path d="M47.37,11.34l-3.8,14.17h11.74S62.15,0,62.15,0H15.19S0,56.69,0,56.69H11.74s4.56-17.01,4.56-17.01H54.45s-4.56,17.01-4.56,17.01h11.74l12.15-45.35,9.26,9.26-5.63,21.01-10.42,6.01-2.43,9.07h9.39s13.19-7.62,13.19-7.62l8.54-31.87L78.48,0h-13.4s-7.6,28.35-7.6,28.35H19.33s4.56-17.01,4.56-17.01h23.48Z"/>
</svg>